<svg xmlns="http://www.w3.org/2000/svg" viewBox="0 0 65.03 65.03"><defs><style>.cls-1{fill:#29d3d3;}.cls-2{fill:#adadad;}</style></defs><title>Asset 1</title><g id="Layer_2" data-name="Layer 2"><g id="Layer_1-2" data-name="Layer 1"><path class="cls-1" d="M30.8,38.49a6,6,0,0,1-.39,2.15,5.41,5.41,0,0,1-1.11,1.79,5.28,5.28,0,0,1-1.76,1.23,5.83,5.83,0,0,1-2.36.45,4.66,4.66,0,0,1-2.63-.69A8.74,8.74,0,0,1,20.89,42L23.48,40a3.3,3.3,0,0,0,.82.6,2.11,2.11,0,0,0,1,.24A2.46,2.46,0,0,0,26,40.7a1.85,1.85,0,0,0,.73-.42,2.53,2.53,0,0,0,.58-.84,3.44,3.44,0,0,0,.24-1.4V20.93H30.8Z"/><path class="cls-1" d="M37,24H33.23v-3.1H44.14V24H40.33V43.91H37Z"/><path class="cls-2" d="M32.52,65A32.52,32.52,0,1,1,65,32.52,32.55,32.55,0,0,1,32.52,65Zm0-62A29.52,29.52,0,1,0,62,32.52,29.55,29.55,0,0,0,32.52,3Z"/></g></g></svg>